<svg width="24" height="25" viewBox="0 0 24 25" fill="none" xmlns="http://www.w3.org/2000/svg">
<path d="M13.0281 2.88965C14.1535 2.89151 14.7238 2.89746 15.2166 2.91213L15.4107 2.91848C15.6349 2.92645 15.8561 2.93645 16.1228 2.94895C17.1869 2.99811 17.9128 3.16645 18.5503 3.41395C19.2094 3.66811 19.7661 4.01145 20.3219 4.56728C20.8769 5.12311 21.2203 5.68145 21.4753 6.33895C21.7219 6.97561 21.8903 7.70228 21.9403 8.76645C21.9522 9.03311 21.9618 9.25431 21.9697 9.47856L21.976 9.67264C21.9906 10.1654 21.9973 10.7358 21.9994 11.8612L22.0002 12.6069C22.0003 12.698 22.0003 12.792 22.0003 12.889L22.0002 13.1711L21.9996 13.9168C21.9977 15.0422 21.9918 15.6125 21.9771 16.1053L21.9707 16.2994C21.9628 16.5236 21.9528 16.7448 21.9403 17.0115C21.8911 18.0756 21.7219 18.8015 21.4753 19.439C21.2211 20.0981 20.8769 20.6548 20.3219 21.2106C19.7661 21.7656 19.2069 22.109 18.5503 22.364C17.9128 22.6106 17.1869 22.779 16.1228 22.829C15.8561 22.8409 15.6349 22.8505 15.4107 22.8584L15.2166 22.8647C14.7238 22.8793 14.1535 22.886 13.0281 22.8881L12.2824 22.8889C12.1913 22.889 12.0973 22.889 12.0003 22.889L11.7182 22.8889L10.9725 22.8883C9.8471 22.8864 9.27672 22.8805 8.78397 22.8658L8.58989 22.8594C8.36564 22.8515 8.14444 22.8415 7.87778 22.829C6.81361 22.7798 6.08861 22.6106 5.45028 22.364C4.79194 22.1098 4.23444 21.7656 3.67861 21.2106C3.12278 20.6548 2.78028 20.0956 2.52528 19.439C2.27778 18.8015 2.11028 18.0756 2.06028 17.0115C2.0484 16.7448 2.03871 16.5236 2.03086 16.2994L2.02457 16.1053C2.00994 15.6125 2.00327 15.0422 2.00111 13.9168L2.00098 11.8612C2.00284 10.7358 2.00879 10.1654 2.02346 9.67264L2.02981 9.47856C2.03778 9.25431 2.04778 9.03311 2.06028 8.76645C2.10944 7.70145 2.27778 6.97645 2.52528 6.33895C2.77944 5.68061 3.12278 5.12311 3.67861 4.56728C4.23444 4.01145 4.79278 3.66895 5.45028 3.41395C6.08778 3.16645 6.81278 2.99895 7.87778 2.94895C8.14444 2.93707 8.36564 2.92738 8.58989 2.91953L8.78397 2.91324C9.27672 2.89861 9.8471 2.89194 10.9725 2.88978L13.0281 2.88965ZM12.0003 7.88895C9.23738 7.88895 7.00028 10.1285 7.00028 12.889C7.00028 15.6519 9.23981 17.889 12.0003 17.889C14.7632 17.889 17.0003 15.6494 17.0003 12.889C17.0003 10.126 14.7607 7.88895 12.0003 7.88895ZM12.0003 9.88895C13.6572 9.88895 15.0003 11.2316 15.0003 12.889C15.0003 14.5459 13.6576 15.889 12.0003 15.889C10.3434 15.889 9.00028 14.5463 9.00028 12.889C9.00028 11.2321 10.3429 9.88895 12.0003 9.88895ZM17.2503 6.38895C16.561 6.38895 16.0003 6.94885 16.0003 7.6381C16.0003 8.32734 16.5602 8.88811 17.2503 8.88811C17.9395 8.88811 18.5003 8.32821 18.5003 7.6381C18.5003 6.94885 17.9386 6.38808 17.2503 6.38895Z" fill="#D8C3B2"/>
</svg>
