<svg width="20" height="20" viewBox="0 0 20 20" fill="none" xmlns="http://www.w3.org/2000/svg">
<path fill-rule="evenodd" clip-rule="evenodd" d="M16.1987 3.79228C15.3898 2.98293 14.4287 2.34158 13.3709 1.90515C12.3131 1.46872 11.1794 1.24583 10.0351 1.24931C5.23273 1.24931 1.32335 5.13915 1.3214 9.92118C1.31927 11.4439 1.72065 12.94 2.48468 14.2571L1.24835 18.7493L5.86749 17.5435C7.14609 18.2361 8.57738 18.5986 10.0316 18.5981H10.0351C14.837 18.5981 18.746 14.7079 18.7484 9.92626C18.7513 8.78586 18.5273 7.65626 18.0896 6.60319C17.6519 5.55012 17.0092 4.59462 16.1987 3.79228ZM10.0351 17.1345H10.0319C8.73561 17.1349 7.46284 16.7879 6.34601 16.1298L6.08155 15.9735L3.34054 16.6892L4.07218 14.0294L3.89991 13.756C3.17506 12.6084 2.79103 11.2785 2.79249 9.92118C2.79249 5.94736 6.04288 2.71415 10.0378 2.71415C11.9542 2.71073 13.7935 3.46866 15.1511 4.82123C16.5087 6.1738 17.2735 8.01025 17.2773 9.92665C17.2757 13.9009 14.0269 17.1345 10.0351 17.1345ZM14.0073 11.7364C13.7898 11.6278 12.7183 11.1036 12.5198 11.0313C12.3214 10.9591 12.1749 10.9227 12.03 11.1399C11.8851 11.3571 11.4675 11.8431 11.3405 11.9895C11.2136 12.136 11.0866 12.152 10.8691 12.0435C10.6515 11.9349 9.94952 11.7063 9.11788 10.9681C8.47062 10.3934 8.0339 9.68408 7.90695 9.46728C7.77999 9.25048 7.89327 9.1329 8.00226 9.02509C8.1003 8.92782 8.21984 8.77196 8.32882 8.6454C8.4378 8.51884 8.47413 8.42822 8.5464 8.28368C8.61866 8.13915 8.58273 8.01259 8.52843 7.90439C8.47413 7.79618 8.03859 6.72939 7.85734 6.2954C7.68038 5.87275 7.50109 5.93017 7.36749 5.92353C7.24054 5.91728 7.09406 5.91572 6.94991 5.91572C6.83972 5.91858 6.73131 5.94414 6.63143 5.99078C6.53156 6.03742 6.44237 6.10416 6.36945 6.18681C6.16984 6.404 5.60734 6.929 5.60734 7.99462C5.60734 9.06025 6.38859 10.0915 6.4964 10.236C6.60421 10.3806 8.03155 12.5692 10.2155 13.5079C10.6211 13.6816 11.0355 13.8339 11.4569 13.9642C11.9784 14.129 12.453 14.106 12.828 14.0501C13.2464 13.988 14.1171 13.5259 14.298 13.0196C14.4788 12.5134 14.4792 12.0798 14.4249 11.9895C14.3706 11.8993 14.2253 11.8446 14.0073 11.7364Z" fill="white"/>
</svg>
