<svg width="24" height="25" viewBox="0 0 24 25" fill="none" xmlns="http://www.w3.org/2000/svg">
<path d="M12.001 2.88867C17.5238 2.88867 22.001 7.36582 22.001 12.8887C22.001 18.4115 17.5238 22.8887 12.001 22.8887C10.1671 22.8887 8.44851 22.3951 6.97086 21.5334L2.00516 22.8887L3.35712 17.9202C2.49494 16.4423 2.00098 14.7232 2.00098 12.8887C2.00098 7.36582 6.47813 2.88867 12.001 2.88867ZM8.39232 8.197C8.26293 8.20609 8.13607 8.23769 8.02057 8.29678C7.93392 8.34111 7.85348 8.40518 7.72709 8.52453C7.60774 8.63722 7.53857 8.73564 7.46569 8.83053C7.09599 9.31187 6.89729 9.90272 6.90098 10.5097C6.90299 11.0003 7.03043 11.4771 7.23169 11.9223C7.63982 12.8251 8.31288 13.7795 9.20194 14.6646C9.4155 14.8772 9.62473 15.0921 9.85034 15.2907C10.9538 16.2623 12.2688 16.9629 13.6907 17.3369C13.6907 17.3369 14.2507 17.4229 14.2589 17.4234C14.4444 17.4334 14.6296 17.42 14.8153 17.4105C15.1066 17.3955 15.391 17.3167 15.6484 17.1796C15.8139 17.0915 15.8922 17.0477 16.0311 16.9601C16.0311 16.9601 16.0737 16.9313 16.1559 16.8701C16.2909 16.7695 16.3743 16.6987 16.4866 16.5821C16.5694 16.4961 16.6406 16.3945 16.6956 16.28C16.7738 16.1168 16.8525 15.8053 16.8838 15.5466C16.9077 15.349 16.9005 15.241 16.8979 15.1741C16.8936 15.0665 16.8047 14.9558 16.7073 14.9088L16.1258 14.6474C16.1258 14.6474 15.2563 14.269 14.7245 14.0264C14.6691 14.0011 14.6085 13.9894 14.5476 13.9857C14.4142 13.9775 14.2647 14.0123 14.1696 14.1125C14.1646 14.1105 14.0984 14.1677 13.3749 15.0442C13.335 15.0919 13.2415 15.1956 13.0798 15.1859C13.0554 15.1842 13.0311 15.1807 13.0074 15.1745C12.9419 15.1572 12.8781 15.1344 12.8157 15.108C12.692 15.0555 12.6486 15.0356 12.5641 14.9992C11.9868 14.747 11.457 14.4096 10.9887 13.9967C10.8631 13.8861 10.7463 13.767 10.6259 13.6503C10.2057 13.243 9.86169 12.8098 9.60577 12.3825C9.5918 12.3592 9.57027 12.3255 9.54708 12.2878C9.50521 12.2197 9.45903 12.1387 9.44455 12.0831C9.40738 11.936 9.50599 11.8178 9.50599 11.8178C9.50599 11.8178 9.74939 11.5517 9.86248 11.407C9.97128 11.2677 10.0652 11.1315 10.125 11.0344C10.2428 10.845 10.2801 10.6493 10.2182 10.4983C9.93764 9.81432 9.64818 9.13403 9.34986 8.45761C9.29098 8.32412 9.11585 8.22713 8.95659 8.20874C8.90265 8.20251 8.84875 8.19625 8.79459 8.19269C8.66053 8.18615 8.5262 8.18759 8.39232 8.197Z" fill="#D8C3B2"/>
</svg>
