<svg width="24" height="25" viewBox="0 0 24 25" fill="none" xmlns="http://www.w3.org/2000/svg">
<path d="M18.3362 19.2277H15.6707V15.0509C15.6707 14.0549 15.6505 12.7732 14.2817 12.7732C12.892 12.7732 12.6797 13.857 12.6797 14.9774V19.2277H10.0142V10.6387H12.5747V11.8094H12.6092C12.967 11.1344 13.837 10.4219 15.1367 10.4219C17.8375 10.4219 18.337 12.1995 18.337 14.5132L18.3362 19.2277ZM7.00373 9.46342C6.14573 9.46342 5.45648 8.76892 5.45648 7.91467C5.45648 7.06117 6.14648 6.36742 7.00373 6.36742C7.85873 6.36742 8.55173 7.06117 8.55173 7.91467C8.55173 8.76892 7.85798 9.46342 7.00373 9.46342ZM8.34023 19.2277H5.66723V10.6387H8.34023V19.2277ZM19.6697 3.88867H4.32923C3.59498 3.88867 3.00098 4.46917 3.00098 5.18542V20.592C3.00098 21.3089 3.59498 21.8887 4.32923 21.8887H19.6675C20.401 21.8887 21.001 21.3089 21.001 20.592V5.18542C21.001 4.46917 20.401 3.88867 19.6675 3.88867H19.6697Z" fill="#D8C3B2"/>
</svg>
